<?xml version="1.0" encoding="utf-8"?>
<!-- Generator: Adobe Illustrator 22.1.0, SVG Export Plug-In . SVG Version: 6.00 Build 0)  -->
<svg version="1.1" id="Calque_1" xmlns="http://www.w3.org/2000/svg" xmlns:xlink="http://www.w3.org/1999/xlink" x="0px" y="0px"
	 viewBox="0 0 28.3 28.3" style="enable-background:new 0 0 28.3 28.3;" xml:space="preserve">
<g>
	<path d="M27.3,1v25.7H24v-4.4c-1.4,1.7-2.9,3-4.7,3.8c-1.7,0.9-3.6,1.3-5.7,1.3c-3.6,0-6.8-1.3-9.3-4s-3.9-5.9-3.9-9.6
		c0-3.7,1.3-6.9,3.9-9.5c2.6-2.6,5.7-4,9.4-4c2.1,0,4,0.4,5.7,1.3c1.7,0.9,3.2,2.2,4.5,4V1H27.3z M14.1,3.6C12.2,3.6,10.5,4,9,4.9
		C7.4,5.8,6.2,7.1,5.2,8.8S3.9,12.1,3.9,14c0,1.8,0.5,3.5,1.4,5.2C6.2,20.8,7.4,22.1,9,23c1.6,0.9,3.3,1.4,5,1.4
		c1.8,0,3.5-0.5,5.2-1.4c1.6-0.9,2.9-2.2,3.7-3.7c0.9-1.6,1.3-3.3,1.3-5.3c0-3-1-5.5-2.9-7.5C19.4,4.6,16.9,3.6,14.1,3.6z"/>
</g>
</svg>
